<mxfile host="app.diagrams.net" modified="2023-11-28T01:54:27.003Z" agent="Mozilla/5.0 (Windows NT 10.0; Win64; x64) AppleWebKit/537.36 (KHTML, like Gecko) Chrome/119.0.0.0 Safari/537.36" etag="BwNvF5YUBNjk2tLgfYjB" version="22.1.4" type="device">
  <diagram name="Página-1" id="uWC9v-ducssEwqi5SsYS">
    <mxGraphModel dx="1035" dy="555" grid="1" gridSize="10" guides="1" tooltips="1" connect="1" arrows="1" fold="1" page="1" pageScale="1" pageWidth="827" pageHeight="1169" math="0" shadow="0">
      <root>
        <mxCell id="0" />
        <mxCell id="1" parent="0" />
        <mxCell id="D8uAMDQyfGPtoSX972Os-81" value="" style="shape=or;whiteSpace=wrap;html=1;rotation=90;" vertex="1" parent="1">
          <mxGeometry x="496.75" y="752" width="20" height="52.5" as="geometry" />
        </mxCell>
        <mxCell id="D8uAMDQyfGPtoSX972Os-54" value="" style="shape=or;whiteSpace=wrap;html=1;rotation=90;" vertex="1" parent="1">
          <mxGeometry x="179" y="770" width="20" height="20" as="geometry" />
        </mxCell>
        <mxCell id="D8uAMDQyfGPtoSX972Os-43" style="edgeStyle=orthogonalEdgeStyle;rounded=0;orthogonalLoop=1;jettySize=auto;html=1;endArrow=oval;endFill=1;entryX=0.513;entryY=-0.127;entryDx=0;entryDy=0;entryPerimeter=0;" edge="1" parent="1" source="D8uAMDQyfGPtoSX972Os-38" target="D8uAMDQyfGPtoSX972Os-39">
          <mxGeometry relative="1" as="geometry">
            <mxPoint x="338" y="620" as="sourcePoint" />
            <mxPoint x="120" y="730" as="targetPoint" />
            <Array as="points">
              <mxPoint x="190" y="605" />
            </Array>
          </mxGeometry>
        </mxCell>
        <mxCell id="D8uAMDQyfGPtoSX972Os-63" style="edgeStyle=orthogonalEdgeStyle;rounded=0;orthogonalLoop=1;jettySize=auto;html=1;exitX=0.75;exitY=1;exitDx=0;exitDy=0;entryX=0.5;entryY=0;entryDx=0;entryDy=0;endArrow=oval;endFill=1;" edge="1" parent="1" target="D8uAMDQyfGPtoSX972Os-41">
          <mxGeometry relative="1" as="geometry">
            <mxPoint x="493" y="625" as="sourcePoint" />
            <Array as="points">
              <mxPoint x="498" y="625" />
            </Array>
          </mxGeometry>
        </mxCell>
        <mxCell id="D8uAMDQyfGPtoSX972Os-38" value="LEILÕES WEB" style="rounded=0;whiteSpace=wrap;html=1;" vertex="1" parent="1">
          <mxGeometry x="430" y="585" width="120" height="40" as="geometry" />
        </mxCell>
        <mxCell id="D8uAMDQyfGPtoSX972Os-39" value="CADASTRO" style="rounded=0;whiteSpace=wrap;html=1;" vertex="1" parent="1">
          <mxGeometry x="129" y="740" width="120" height="30" as="geometry" />
        </mxCell>
        <mxCell id="D8uAMDQyfGPtoSX972Os-69" style="edgeStyle=orthogonalEdgeStyle;rounded=0;orthogonalLoop=1;jettySize=auto;html=1;exitX=0.4;exitY=1;exitDx=0;exitDy=0;entryX=1;entryY=0.5;entryDx=0;entryDy=0;endArrow=oval;endFill=1;exitPerimeter=0;" edge="1" parent="1" source="D8uAMDQyfGPtoSX972Os-41" target="D8uAMDQyfGPtoSX972Os-68">
          <mxGeometry relative="1" as="geometry">
            <mxPoint x="483" y="781.26" as="sourcePoint" />
            <Array as="points">
              <mxPoint x="483" y="770" />
              <mxPoint x="483" y="845" />
            </Array>
          </mxGeometry>
        </mxCell>
        <mxCell id="D8uAMDQyfGPtoSX972Os-41" value="COBRANÇA POR USO" style="rounded=0;whiteSpace=wrap;html=1;" vertex="1" parent="1">
          <mxGeometry x="433" y="740" width="130" height="30" as="geometry" />
        </mxCell>
        <mxCell id="D8uAMDQyfGPtoSX972Os-42" value="REGISTRO LANCES" style="rounded=0;whiteSpace=wrap;html=1;" vertex="1" parent="1">
          <mxGeometry x="294" y="740" width="120" height="30" as="geometry" />
        </mxCell>
        <mxCell id="D8uAMDQyfGPtoSX972Os-44" value="COMPRADOR" style="rounded=0;whiteSpace=wrap;html=1;" vertex="1" parent="1">
          <mxGeometry x="99" y="830" width="90" height="30" as="geometry" />
        </mxCell>
        <mxCell id="D8uAMDQyfGPtoSX972Os-45" value="VENDEDOR" style="rounded=0;whiteSpace=wrap;html=1;" vertex="1" parent="1">
          <mxGeometry x="214" y="830" width="80" height="30" as="geometry" />
        </mxCell>
        <mxCell id="D8uAMDQyfGPtoSX972Os-52" value="" style="endArrow=oval;html=1;rounded=0;endFill=1;" edge="1" parent="1">
          <mxGeometry width="50" height="50" relative="1" as="geometry">
            <mxPoint x="194" y="770" as="sourcePoint" />
            <mxPoint x="144" y="830" as="targetPoint" />
          </mxGeometry>
        </mxCell>
        <mxCell id="D8uAMDQyfGPtoSX972Os-53" value="" style="endArrow=oval;html=1;rounded=0;endFill=1;exitX=0.5;exitY=1;exitDx=0;exitDy=0;" edge="1" parent="1" source="D8uAMDQyfGPtoSX972Os-39">
          <mxGeometry width="50" height="50" relative="1" as="geometry">
            <mxPoint x="194" y="770" as="sourcePoint" />
            <mxPoint x="234" y="830" as="targetPoint" />
          </mxGeometry>
        </mxCell>
        <mxCell id="D8uAMDQyfGPtoSX972Os-55" value="" style="endArrow=oval;html=1;rounded=0;endFill=1;" edge="1" parent="1" target="D8uAMDQyfGPtoSX972Os-54">
          <mxGeometry width="50" height="50" relative="1" as="geometry">
            <mxPoint x="194" y="770" as="sourcePoint" />
            <mxPoint x="234" y="830" as="targetPoint" />
          </mxGeometry>
        </mxCell>
        <mxCell id="D8uAMDQyfGPtoSX972Os-64" value="&lt;font style=&quot;font-size: 11px;&quot;&gt;SISTEMA MENSAGEM&lt;/font&gt;" style="rounded=0;whiteSpace=wrap;html=1;" vertex="1" parent="1">
          <mxGeometry x="610" y="740" width="120" height="30" as="geometry" />
        </mxCell>
        <mxCell id="D8uAMDQyfGPtoSX972Os-65" value="&lt;font style=&quot;font-size: 11px;&quot;&gt;MENSAGEM&lt;/font&gt;" style="rounded=0;whiteSpace=wrap;html=1;" vertex="1" parent="1">
          <mxGeometry x="625" y="830" width="90" height="30" as="geometry" />
        </mxCell>
        <mxCell id="D8uAMDQyfGPtoSX972Os-66" value="" style="endArrow=oval;html=1;rounded=0;endFill=0;entryX=0.5;entryY=0;entryDx=0;entryDy=0;" edge="1" parent="1" target="D8uAMDQyfGPtoSX972Os-65">
          <mxGeometry width="50" height="50" relative="1" as="geometry">
            <mxPoint x="669.5" y="770" as="sourcePoint" />
            <mxPoint x="670" y="820" as="targetPoint" />
          </mxGeometry>
        </mxCell>
        <mxCell id="D8uAMDQyfGPtoSX972Os-67" value="" style="endArrow=oval;html=1;rounded=0;endFill=0;entryX=0.5;entryY=0;entryDx=0;entryDy=0;exitX=0.75;exitY=1;exitDx=0;exitDy=0;" edge="1" parent="1" target="D8uAMDQyfGPtoSX972Os-64" source="D8uAMDQyfGPtoSX972Os-38">
          <mxGeometry width="50" height="50" relative="1" as="geometry">
            <mxPoint x="670" y="660" as="sourcePoint" />
            <mxPoint x="681.5" y="720" as="targetPoint" />
            <Array as="points" />
          </mxGeometry>
        </mxCell>
        <mxCell id="D8uAMDQyfGPtoSX972Os-68" value="Valor fixo por periodo" style="rounded=0;whiteSpace=wrap;html=1;" vertex="1" parent="1">
          <mxGeometry x="338" y="830" width="120" height="30" as="geometry" />
        </mxCell>
        <mxCell id="D8uAMDQyfGPtoSX972Os-70" value="&lt;font style=&quot;font-size: 11px;&quot;&gt;Anuncios&lt;/font&gt;" style="rounded=0;whiteSpace=wrap;html=1;" vertex="1" parent="1">
          <mxGeometry x="760" y="740" width="120" height="30" as="geometry" />
        </mxCell>
        <mxCell id="D8uAMDQyfGPtoSX972Os-71" style="edgeStyle=orthogonalEdgeStyle;rounded=0;orthogonalLoop=1;jettySize=auto;html=1;exitX=1;exitY=0.5;exitDx=0;exitDy=0;entryX=0.558;entryY=0.1;entryDx=0;entryDy=0;entryPerimeter=0;endArrow=oval;endFill=0;" edge="1" parent="1" source="D8uAMDQyfGPtoSX972Os-38" target="D8uAMDQyfGPtoSX972Os-70">
          <mxGeometry relative="1" as="geometry" />
        </mxCell>
        <mxCell id="D8uAMDQyfGPtoSX972Os-73" value="Valor variavel por periodo" style="rounded=0;whiteSpace=wrap;html=1;" vertex="1" parent="1">
          <mxGeometry x="338" y="870" width="120" height="30" as="geometry" />
        </mxCell>
        <mxCell id="D8uAMDQyfGPtoSX972Os-74" value="Taxa unica" style="rounded=0;whiteSpace=wrap;html=1;" vertex="1" parent="1">
          <mxGeometry x="338" y="910" width="120" height="30" as="geometry" />
        </mxCell>
        <mxCell id="D8uAMDQyfGPtoSX972Os-75" style="edgeStyle=orthogonalEdgeStyle;rounded=0;orthogonalLoop=1;jettySize=auto;html=1;exitX=0.25;exitY=1;exitDx=0;exitDy=0;entryX=1;entryY=0.75;entryDx=0;entryDy=0;endArrow=oval;endFill=1;" edge="1" parent="1" target="D8uAMDQyfGPtoSX972Os-73">
          <mxGeometry relative="1" as="geometry">
            <mxPoint x="502" y="770" as="sourcePoint" />
            <mxPoint x="494" y="845" as="targetPoint" />
            <Array as="points">
              <mxPoint x="503" y="770" />
              <mxPoint x="503" y="890" />
              <mxPoint x="458" y="890" />
            </Array>
          </mxGeometry>
        </mxCell>
        <mxCell id="D8uAMDQyfGPtoSX972Os-76" style="edgeStyle=orthogonalEdgeStyle;rounded=0;orthogonalLoop=1;jettySize=auto;html=1;entryX=1;entryY=0.75;entryDx=0;entryDy=0;endArrow=oval;endFill=1;" edge="1" parent="1">
          <mxGeometry relative="1" as="geometry">
            <mxPoint x="513" y="770" as="sourcePoint" />
            <mxPoint x="458" y="933" as="targetPoint" />
            <Array as="points">
              <mxPoint x="533" y="770" />
              <mxPoint x="533" y="930" />
              <mxPoint x="458" y="930" />
            </Array>
          </mxGeometry>
        </mxCell>
        <mxCell id="D8uAMDQyfGPtoSX972Os-83" value="" style="endArrow=oval;html=1;rounded=0;endFill=1;entryX=0.5;entryY=0;entryDx=0;entryDy=0;exitX=0.25;exitY=1;exitDx=0;exitDy=0;" edge="1" parent="1" source="D8uAMDQyfGPtoSX972Os-38">
          <mxGeometry width="50" height="50" relative="1" as="geometry">
            <mxPoint x="215" y="625" as="sourcePoint" />
            <mxPoint x="365" y="740" as="targetPoint" />
            <Array as="points" />
          </mxGeometry>
        </mxCell>
      </root>
    </mxGraphModel>
  </diagram>
</mxfile>
